<svg width="30" height="30" viewBox="0 0 30 30" fill="none" xmlns="http://www.w3.org/2000/svg">
<rect x="0.5" y="0.5" width="29" height="29" rx="4.5" fill="white"/>
<rect x="0.5" y="0.5" width="29" height="29" rx="4.5" stroke="#E7E7E7"/>
<path d="M10.84 12.1845C11.24 11.6579 11.83 11.3945 12.61 11.3945C13.39 11.3945 13.98 11.6545 14.38 12.1745C14.7733 12.6879 14.97 13.6312 14.97 15.0045C14.97 16.3712 14.7733 17.3112 14.38 17.8245C13.98 18.3445 13.39 18.6045 12.61 18.6045C11.8167 18.6045 11.2267 18.3412 10.84 17.8145C10.4467 17.2879 10.25 16.3512 10.25 15.0045C10.25 13.6512 10.4467 12.7112 10.84 12.1845ZM11.15 14.9945C11.15 16.0945 11.2733 16.8512 11.52 17.2645C11.7733 17.6579 12.1367 17.8545 12.61 17.8545C13.1367 17.8545 13.5133 17.6279 13.74 17.1745C13.96 16.7345 14.07 16.0179 14.07 15.0245C14.07 14.6912 14.0667 14.4279 14.06 14.2345C14.0533 14.0412 14.0167 13.7845 13.95 13.4645C13.8833 13.1379 13.7833 12.8779 13.65 12.6845C13.4033 12.3245 13.0533 12.1445 12.6 12.1445C12.1467 12.1445 11.79 12.3379 11.53 12.7245C11.2767 13.1112 11.15 13.8679 11.15 14.9945Z" fill="#333333"/>
<path d="M18.0966 11.3945H18.7466V18.4845H17.8966V13.4045H16.0566V12.7245H16.0866C17.26 12.7245 17.93 12.2812 18.0966 11.3945Z" fill="#333333"/>
</svg>
