<svg width="30" height="30" viewBox="0 0 30 30" fill="none" xmlns="http://www.w3.org/2000/svg">
<rect x="0.5" y="0.5" width="29" height="29" rx="4.5" fill="white"/>
<rect x="0.5" y="0.5" width="29" height="29" rx="4.5" stroke="#E7E7E7"/>
<path d="M10.1525 12.1845C10.5525 11.6579 11.1425 11.3945 11.9225 11.3945C12.7025 11.3945 13.2925 11.6545 13.6925 12.1745C14.0858 12.6879 14.2825 13.6312 14.2825 15.0045C14.2825 16.3712 14.0858 17.3112 13.6925 17.8245C13.2925 18.3445 12.7025 18.6045 11.9225 18.6045C11.1292 18.6045 10.5392 18.3412 10.1525 17.8145C9.75917 17.2879 9.5625 16.3512 9.5625 15.0045C9.5625 13.6512 9.75917 12.7112 10.1525 12.1845ZM10.4625 14.9945C10.4625 16.0945 10.5858 16.8512 10.8325 17.2645C11.0858 17.6579 11.4492 17.8545 11.9225 17.8545C12.4492 17.8545 12.8258 17.6279 13.0525 17.1745C13.2725 16.7345 13.3825 16.0179 13.3825 15.0245C13.3825 14.6912 13.3792 14.4279 13.3725 14.2345C13.3658 14.0412 13.3292 13.7845 13.2625 13.4645C13.1958 13.1379 13.0958 12.8779 12.9625 12.6845C12.7158 12.3245 12.3658 12.1445 11.9125 12.1445C11.4592 12.1445 11.1025 12.3379 10.8425 12.7245C10.5892 13.1112 10.4625 13.8679 10.4625 14.9945Z" fill="black"/>
<path d="M17.2191 11.3945C17.8791 11.3945 18.4125 11.5812 18.8191 11.9545C19.2325 12.3212 19.4391 12.8145 19.4391 13.4345C19.4391 13.9212 19.3025 14.3612 19.0291 14.7545C18.7625 15.1479 18.1825 15.6012 17.2891 16.1145C16.7625 16.4212 16.3825 16.6979 16.1491 16.9445C15.9225 17.1845 15.7825 17.4479 15.7291 17.7345H19.3691V18.4845H14.7391C14.7858 17.9045 14.9358 17.3879 15.1891 16.9345C15.4425 16.5012 15.9225 16.0712 16.6291 15.6445C17.4358 15.1645 17.9591 14.7712 18.1991 14.4645C18.4258 14.1779 18.5391 13.8345 18.5391 13.4345C18.5391 13.0612 18.4058 12.7545 18.1391 12.5145C17.8791 12.2679 17.5558 12.1445 17.1691 12.1445C16.7425 12.1445 16.4058 12.3045 16.1591 12.6245C15.9125 12.9379 15.7891 13.3412 15.7891 13.8345V13.9045H14.9391L14.9291 13.7245C14.9291 13.0245 15.1358 12.4612 15.5491 12.0345C15.9691 11.6079 16.5258 11.3945 17.2191 11.3945Z" fill="black"/>
</svg>
