<svg width="30" height="30" viewBox="0 0 30 30" fill="none" xmlns="http://www.w3.org/2000/svg">
<rect x="0.5" y="0.5" width="29" height="29" rx="4.5" fill="white"/>
<rect x="0.5" y="0.5" width="29" height="29" rx="4.5" stroke="#E7E7E7"/>
<path d="M10.0744 12.1845C10.4744 11.6579 11.0644 11.3945 11.8444 11.3945C12.6244 11.3945 13.2144 11.6545 13.6144 12.1745C14.0077 12.6879 14.2044 13.6312 14.2044 15.0045C14.2044 16.3712 14.0077 17.3112 13.6144 17.8245C13.2144 18.3445 12.6244 18.6045 11.8444 18.6045C11.051 18.6045 10.461 18.3412 10.0744 17.8145C9.68104 17.2879 9.48438 16.3512 9.48438 15.0045C9.48438 13.6512 9.68104 12.7112 10.0744 12.1845ZM10.3844 14.9945C10.3844 16.0945 10.5077 16.8512 10.7544 17.2645C11.0077 17.6579 11.371 17.8545 11.8444 17.8545C12.371 17.8545 12.7477 17.6279 12.9744 17.1745C13.1944 16.7345 13.3044 16.0179 13.3044 15.0245C13.3044 14.6912 13.301 14.4279 13.2944 14.2345C13.2877 14.0412 13.251 13.7845 13.1844 13.4645C13.1177 13.1379 13.0177 12.8779 12.8844 12.6845C12.6377 12.3245 12.2877 12.1445 11.8344 12.1445C11.381 12.1445 11.0244 12.3379 10.7644 12.7245C10.511 13.1112 10.3844 13.8679 10.3844 14.9945Z" fill="black"/>
<path d="M17.061 11.3945C17.7343 11.3945 18.261 11.5645 18.641 11.9045C19.021 12.2379 19.211 12.6979 19.211 13.2845C19.211 13.5779 19.1243 13.8512 18.951 14.1045C18.7843 14.3512 18.5443 14.5512 18.231 14.7045V14.7245C18.6443 14.8179 18.961 15.0145 19.181 15.3145C19.401 15.6145 19.511 15.9912 19.511 16.4445C19.511 17.0979 19.2843 17.6212 18.831 18.0145C18.3843 18.4079 17.801 18.6045 17.081 18.6045C16.361 18.6045 15.7843 18.4045 15.351 18.0045C14.9243 17.6045 14.711 17.0445 14.711 16.3245V16.2945H15.571C15.591 16.7945 15.7343 17.1812 16.001 17.4545C16.2677 17.7212 16.6277 17.8545 17.081 17.8545C17.521 17.8545 17.8843 17.7279 18.171 17.4745C18.4643 17.2145 18.611 16.8845 18.611 16.4845C18.611 16.0645 18.471 15.7345 18.191 15.4945C17.9177 15.2479 17.5443 15.1245 17.071 15.1245C16.9177 15.1245 16.7577 15.1345 16.591 15.1545V14.4345C16.6443 14.4412 16.751 14.4445 16.911 14.4445C17.331 14.4445 17.671 14.3379 17.931 14.1245C18.191 13.9045 18.321 13.6245 18.321 13.2845C18.321 12.9312 18.2043 12.6545 17.971 12.4545C17.7443 12.2479 17.441 12.1445 17.061 12.1445C16.6477 12.1445 16.321 12.2812 16.081 12.5545C15.841 12.8212 15.7177 13.1979 15.711 13.6845H14.861C14.8943 12.9512 15.101 12.3879 15.481 11.9945C15.8677 11.5945 16.3943 11.3945 17.061 11.3945Z" fill="black"/>
</svg>
