<svg width="30" height="30" viewBox="0 0 30 30" fill="none" xmlns="http://www.w3.org/2000/svg">
<rect x="0.5" y="0.5" width="29" height="29" rx="4.5" fill="white"/>
<rect x="0.5" y="0.5" width="29" height="29" rx="4.5" stroke="#E7E7E7"/>
<path d="M10.0431 12.1845C10.4431 11.6579 11.0331 11.3945 11.8131 11.3945C12.5931 11.3945 13.1831 11.6545 13.5831 12.1745C13.9765 12.6879 14.1731 13.6312 14.1731 15.0045C14.1731 16.3712 13.9765 17.3112 13.5831 17.8245C13.1831 18.3445 12.5931 18.6045 11.8131 18.6045C11.0198 18.6045 10.4298 18.3412 10.0431 17.8145C9.64979 17.2879 9.45312 16.3512 9.45312 15.0045C9.45312 13.6512 9.64979 12.7112 10.0431 12.1845ZM10.3531 14.9945C10.3531 16.0945 10.4765 16.8512 10.7231 17.2645C10.9765 17.6579 11.3398 17.8545 11.8131 17.8545C12.3398 17.8545 12.7165 17.6279 12.9431 17.1745C13.1631 16.7345 13.2731 16.0179 13.2731 15.0245C13.2731 14.6912 13.2698 14.4279 13.2631 14.2345C13.2565 14.0412 13.2198 13.7845 13.1531 13.4645C13.0865 13.1379 12.9865 12.8779 12.8531 12.6845C12.6065 12.3245 12.2565 12.1445 11.8031 12.1445C11.3498 12.1445 10.9931 12.3379 10.7331 12.7245C10.4798 13.1112 10.3531 13.8679 10.3531 14.9945Z" fill="black"/>
<path d="M17.8998 11.3945H18.5798V16.0745H19.5398V16.8245H18.5798V18.4845H17.7798V16.8245H14.6698V16.0045L17.8998 11.3945ZM17.7798 12.6045H17.7598L15.3998 16.0745H17.7798V12.6045Z" fill="black"/>
</svg>
