<svg width="30" height="30" viewBox="0 0 30 30" fill="none" xmlns="http://www.w3.org/2000/svg">
<rect x="0.5" y="0.5" width="29" height="29" rx="4.5" fill="white"/>
<rect x="0.5" y="0.5" width="29" height="29" rx="4.5" stroke="#E7E7E7"/>
<path d="M10.0744 12.1845C10.4744 11.6579 11.0644 11.3945 11.8444 11.3945C12.6244 11.3945 13.2144 11.6545 13.6144 12.1745C14.0077 12.6879 14.2044 13.6312 14.2044 15.0045C14.2044 16.3712 14.0077 17.3112 13.6144 17.8245C13.2144 18.3445 12.6244 18.6045 11.8444 18.6045C11.051 18.6045 10.461 18.3412 10.0744 17.8145C9.68104 17.2879 9.48438 16.3512 9.48438 15.0045C9.48438 13.6512 9.68104 12.7112 10.0744 12.1845ZM10.3844 14.9945C10.3844 16.0945 10.5077 16.8512 10.7544 17.2645C11.0077 17.6579 11.371 17.8545 11.8444 17.8545C12.371 17.8545 12.7477 17.6279 12.9744 17.1745C13.1944 16.7345 13.3044 16.0179 13.3044 15.0245C13.3044 14.6912 13.301 14.4279 13.2944 14.2345C13.2877 14.0412 13.251 13.7845 13.1844 13.4645C13.1177 13.1379 13.0177 12.8779 12.8844 12.6845C12.6377 12.3245 12.2877 12.1445 11.8344 12.1445C11.381 12.1445 11.0244 12.3379 10.7644 12.7245C10.511 13.1112 10.3844 13.8679 10.3844 14.9945Z" fill="black"/>
<path d="M15.621 11.5145H19.121V12.2645H16.261L15.881 14.3045L15.901 14.3245C16.2077 13.9845 16.6477 13.8145 17.221 13.8145C17.9143 13.8145 18.4677 14.0312 18.881 14.4645C19.301 14.8979 19.511 15.4879 19.511 16.2345C19.511 16.9212 19.281 17.4879 18.821 17.9345C18.361 18.3812 17.7643 18.6045 17.031 18.6045C16.3977 18.6045 15.8677 18.4212 15.441 18.0545C15.0143 17.6879 14.791 17.1979 14.771 16.5845V16.5745H15.621C15.6477 16.9479 15.7977 17.2545 16.071 17.4945C16.351 17.7345 16.6977 17.8545 17.111 17.8545C17.551 17.8545 17.911 17.7045 18.191 17.4045C18.471 17.0979 18.611 16.6879 18.611 16.1745C18.611 15.7012 18.4577 15.3145 18.151 15.0145C17.8443 14.7145 17.4643 14.5645 17.011 14.5645C16.511 14.5645 16.071 14.7879 15.691 15.2345L14.961 15.1945L15.621 11.5145Z" fill="black"/>
</svg>
