<svg width="343" height="34" viewBox="0 0 343 34" fill="none" xmlns="http://www.w3.org/2000/svg">
<g clip-path="url(#clip0_589_2546)">
<path d="M14.1686 25.9183C12.2412 25.9183 10.4509 25.631 8.79832 25.0561C7.14575 24.4583 5.70012 23.6076 4.46069 22.504C3.24411 21.3774 2.2916 20.0553 1.6031 18.5378C0.914595 16.9973 0.570312 15.3074 0.570312 13.468C0.570312 11.6976 0.926019 10.0651 1.63756 8.57062C2.34904 7.05311 3.32439 5.74254 4.56382 4.63892C5.82608 3.51228 7.28353 2.65005 8.9361 2.0523C10.5887 1.43147 12.3554 1.12109 14.2377 1.12109C15.6834 1.12109 17.0605 1.30502 18.3691 1.67287C19.6999 2.04079 20.9165 2.52359 22.0182 3.1214C23.12 3.71922 24.0265 4.3745 24.7379 5.08726L22.0528 8.6396C21.3407 7.99583 20.5719 7.43248 19.7456 6.94968C18.9428 6.46681 18.0591 6.09896 17.0951 5.84598C16.1311 5.57013 15.0868 5.43216 13.9623 5.43216C12.8149 5.43216 11.7131 5.61609 10.6571 5.98394C9.6246 6.35186 8.68345 6.89214 7.83432 7.60489C7.00804 8.2947 6.35409 9.14542 5.87177 10.1571C5.3901 11.1457 5.14926 12.2609 5.14926 13.5025C5.14926 14.813 5.3901 15.9741 5.87177 16.9858C6.37694 17.9975 7.06547 18.8482 7.93744 19.538C8.83291 20.2277 9.84266 20.7566 10.9672 21.1245C12.1146 21.4923 13.3083 21.6763 14.5478 21.6763C15.7409 21.6763 16.8197 21.5268 17.7837 21.2279C18.7477 20.906 19.6079 20.5036 20.3656 20.0208C21.1227 19.538 21.8113 19.0551 22.4313 18.5723L24.5656 22.1591C23.9462 22.7109 23.0971 23.2857 22.0182 23.8835C20.9622 24.4583 19.7574 24.9412 18.4031 25.332C17.0495 25.7229 15.6377 25.9183 14.1686 25.9183Z" fill="#2E4169"/>
<path d="M41.2645 25.9193C39.268 25.9193 37.5241 25.5169 36.032 24.7122C34.54 23.8844 33.3698 22.7579 32.5207 21.3323C31.6944 19.9068 31.2812 18.2858 31.2812 16.4694C31.2812 14.63 31.7172 12.9976 32.5892 11.5721C33.4612 10.1466 34.6549 9.03142 36.1698 8.22666C37.7075 7.42191 39.4749 7.01953 41.4714 7.01953C42.6652 7.01953 43.7662 7.169 44.7765 7.46794C45.8091 7.7438 46.7045 8.13466 47.4616 8.64055C48.2187 9.12335 48.827 9.65218 49.2865 10.227C49.7453 10.8018 49.9979 11.3766 50.0436 11.9514H48.9419V7.39896H53.211V25.5744H48.9073V20.746L49.8028 20.9185C49.7564 21.4933 49.4928 22.0796 49.0111 22.6774C48.5288 23.2522 47.8976 23.781 47.1177 24.2638C46.3371 24.7467 45.4416 25.149 44.4319 25.4709C43.4451 25.7698 42.3897 25.9193 41.2645 25.9193ZM42.3323 22.1601C43.6631 22.1601 44.834 21.9186 45.8437 21.4358C46.8762 20.9299 47.6679 20.2517 48.2187 19.401C48.7931 18.5272 49.0796 17.55 49.0796 16.4694C49.0796 15.3658 48.7931 14.3886 48.2187 13.5379C47.6679 12.6872 46.8762 12.0204 45.8437 11.5375C44.834 11.0547 43.6631 10.8133 42.3323 10.8133C41.0008 10.8133 39.8188 11.0547 38.7863 11.5375C37.776 12.0204 36.9843 12.6872 36.4106 13.5379C35.8597 14.3886 35.5843 15.3658 35.5843 16.4694C35.5843 17.55 35.8597 18.5272 36.4106 19.401C36.9843 20.2517 37.776 20.9299 38.7863 21.4358C39.8188 21.9186 41.0008 22.1601 42.3323 22.1601Z" fill="#2E4169"/>
<path d="M64.7031 25.5723V0.0507812H68.972V25.5723H64.7031Z" fill="#2E4169"/>
<path d="M80.75 25.5723V0.0507812H85.0185V25.5723H80.75Z" fill="#2E4169"/>
<path d="M105.57 25.9193C103.344 25.9193 101.37 25.5169 99.6492 24.7122C97.9274 23.9075 96.5738 22.7923 95.5869 21.3668C94.623 19.9183 94.1406 18.2858 94.1406 16.4694C94.1406 14.63 94.623 12.9976 95.5869 11.5721C96.5738 10.1466 97.9274 9.03142 99.6492 8.22666C101.37 7.42191 103.344 7.01953 105.57 7.01953C107.796 7.01953 109.759 7.42191 111.457 8.22666C113.178 9.03142 114.533 10.1466 115.52 11.5721C116.506 12.9976 117 14.63 117 16.4694C117 18.2858 116.506 19.9183 115.52 21.3668C114.533 22.7923 113.178 23.9075 111.457 24.7122C109.759 25.5169 107.796 25.9193 105.57 25.9193ZM105.57 22.1601C106.925 22.1601 108.141 21.9186 109.219 21.4358C110.298 20.9299 111.147 20.2517 111.767 19.401C112.41 18.5502 112.708 17.5731 112.662 16.4694C112.708 15.3428 112.41 14.3541 111.767 13.5034C111.147 12.6527 110.298 11.9859 109.219 11.5031C108.141 11.0202 106.925 10.7788 105.57 10.7788C104.239 10.7788 103.023 11.0202 101.921 11.5031C100.842 11.9859 99.9931 12.6642 99.3738 13.5379C98.7537 14.3886 98.4554 15.3658 98.4783 16.4694C98.4554 17.5731 98.7537 18.5502 99.3738 19.401C99.9931 20.2517 100.842 20.9299 101.921 21.4358C103.023 21.9186 104.239 22.1601 105.57 22.1601Z" fill="#2E4169"/>
<path d="M128.775 25.5732L122.234 7.3978L126.813 7.36328L131.013 20.7794L130.221 20.6758L135.247 10.0879H138.38L143.51 20.7104L142.856 20.7794L147.538 7.3978H151.91L144.956 25.5732H141.892L135.902 12.8125L137.864 12.6056L131.805 25.5732H128.775Z" fill="#2E4169"/>
<path d="M166.781 25.9193C164.784 25.9193 163.04 25.5169 161.548 24.7122C160.056 23.8844 158.885 22.7579 158.036 21.3323C157.21 19.9068 156.797 18.2858 156.797 16.4694C156.797 14.63 157.233 12.9976 158.105 11.5721C158.977 10.1466 160.171 9.03142 161.685 8.22666C163.223 7.42191 164.991 7.01953 166.987 7.01953C168.181 7.01953 169.282 7.169 170.292 7.46794C171.325 7.7438 172.22 8.13466 172.977 8.64055C173.735 9.12335 174.343 9.65218 174.802 10.227C175.261 10.8018 175.514 11.3766 175.559 11.9514H174.458V7.39896H178.727V25.5744H174.424V20.746L175.318 20.9185C175.273 21.4933 175.008 22.0796 174.527 22.6774C174.044 23.2522 173.413 23.781 172.633 24.2638C171.853 24.7467 170.958 25.149 169.948 25.4709C168.961 25.7698 167.905 25.9193 166.781 25.9193ZM167.848 22.1601C169.179 22.1601 170.35 21.9186 171.359 21.4358C172.392 20.9299 173.184 20.2517 173.735 19.401C174.309 18.5272 174.595 17.55 174.595 16.4694C174.595 15.3658 174.309 14.3886 173.735 13.5379C173.184 12.6872 172.392 12.0204 171.359 11.5375C170.35 11.0547 169.179 10.8133 167.848 10.8133C166.516 10.8133 165.334 11.0547 164.302 11.5375C163.292 12.0204 162.501 12.6872 161.926 13.5379C161.375 14.3886 161.1 15.3658 161.1 16.4694C161.1 17.55 161.375 18.5272 161.926 19.401C162.501 20.2517 163.292 20.9299 164.302 21.4358C165.334 21.9186 166.516 22.1601 167.848 22.1601Z" fill="#2E4169"/>
<path d="M192.601 33.5043L197.421 24.6062L197.318 27.3308L186.68 7.39648H191.603L196.835 17.881C197.386 18.8927 197.868 19.8583 198.281 20.778C198.718 21.6977 199.027 22.5485 199.211 23.3302L198.385 23.3647C198.683 22.6519 199.027 21.8242 199.417 20.8815C199.83 19.9388 200.301 18.9386 200.829 17.881L205.717 7.39648H210.641L201.035 25.7099L197.076 33.5043H192.601Z" fill="#2E4169"/>
<path d="M218.695 25.5716V1.42969H223.171V21.4331H237.767V25.5716H218.695Z" fill="#465D8E"/>
<path d="M256.151 25.9166C253.88 25.9166 251.86 25.5143 250.093 24.7096C248.325 23.9048 246.948 22.8012 245.961 21.3986C244.997 19.9961 244.516 18.4096 244.516 16.6392C244.516 15.1447 244.802 13.8111 245.376 12.6385C245.95 11.443 246.753 10.4313 247.786 9.60356C248.819 8.77579 250.024 8.13201 251.401 7.67216C252.778 7.21231 254.224 6.98242 255.738 6.98242C257.185 6.98242 258.539 7.21231 259.801 7.67216C261.063 8.10906 262.165 8.72983 263.106 9.53458C264.07 10.3163 264.805 11.259 265.309 12.3627C265.837 13.4433 266.09 14.6389 266.067 15.9495L266.032 17.6394H247.855L247.063 14.6389H262.486L261.935 15.1217V14.363C261.821 13.6272 261.465 12.9834 260.868 12.4316C260.272 11.8798 259.526 11.4544 258.63 11.1555C257.735 10.8567 256.771 10.7072 255.738 10.7072C254.385 10.7072 253.168 10.9026 252.089 11.2935C251.011 11.6613 250.161 12.2592 249.542 13.0869C248.922 13.9146 248.612 14.9952 248.612 16.3288C248.612 17.4784 248.956 18.5016 249.645 19.3983C250.334 20.272 251.298 20.9503 252.537 21.4331C253.776 21.9159 255.211 22.1574 256.84 22.1574C258.401 22.1574 259.697 21.962 260.731 21.5711C261.786 21.1572 262.659 20.7204 263.347 20.2605L265.275 23.1921C264.563 23.7209 263.714 24.1922 262.727 24.6061C261.763 24.9969 260.719 25.3188 259.594 25.5717C258.47 25.8017 257.322 25.9166 256.151 25.9166Z" fill="#465D8E"/>
<path d="M285.213 33.5067C283.285 33.5067 281.575 33.2883 280.084 32.8514C278.592 32.4146 277.375 31.8858 276.435 31.2649L277.949 27.9886C278.431 28.2415 279.017 28.5059 279.705 28.7818C280.417 29.0807 281.208 29.3221 282.08 29.506C282.976 29.713 283.939 29.8165 284.972 29.8165C286.235 29.8165 287.336 29.575 288.278 29.0922C289.242 28.6323 289.976 27.9425 290.48 27.0228C290.985 26.1031 291.238 24.9766 291.238 23.643V21.2978L291.857 21.5392C291.743 22.206 291.261 22.8728 290.412 23.5395C289.586 24.1833 288.541 24.7121 287.279 25.126C286.017 25.5399 284.674 25.7468 283.251 25.7468C281.323 25.7468 279.602 25.3559 278.087 24.5742C276.595 23.7694 275.424 22.6658 274.575 21.2632C273.749 19.8607 273.336 18.2513 273.336 16.4348C273.336 14.5955 273.772 12.9745 274.645 11.572C275.539 10.1465 276.756 9.03135 278.294 8.2266C279.854 7.42184 281.644 7.01953 283.664 7.01953C284.238 7.01953 284.88 7.08845 285.592 7.22641C286.327 7.36437 287.073 7.57131 287.83 7.84723C288.587 8.10014 289.287 8.41052 289.93 8.77844C290.595 9.12328 291.123 9.51415 291.514 9.95105C291.927 10.3879 292.145 10.8477 292.167 11.3306L291.273 11.6065L291.376 7.39889H295.507V23.3326C295.507 25.034 295.232 26.517 294.681 27.7816C294.13 29.0692 293.384 30.1384 292.443 30.9891C291.502 31.8398 290.4 32.4721 289.138 32.8859C287.898 33.2998 286.59 33.5067 285.213 33.5067ZM284.662 22.1255C286.017 22.1255 287.187 21.8841 288.174 21.4012C289.184 20.9184 289.976 20.2516 290.549 19.4009C291.123 18.5272 291.41 17.55 291.41 16.4694C291.41 15.3427 291.123 14.354 290.549 13.5033C289.999 12.6526 289.218 11.9859 288.208 11.503C287.199 10.9972 286.017 10.7443 284.662 10.7443C283.308 10.7443 282.092 10.9972 281.013 11.503C279.934 11.9859 279.097 12.6641 278.5 13.5379C277.926 14.3886 277.64 15.3657 277.64 16.4694C277.64 17.527 277.926 18.4927 278.5 19.3664C279.097 20.2172 279.934 20.8954 281.013 21.4012C282.092 21.8841 283.308 22.1255 284.662 22.1255Z" fill="#465D8E"/>
<path d="M314.367 25.9193C312.37 25.9193 310.626 25.5169 309.134 24.7122C307.642 23.8844 306.471 22.7579 305.622 21.3323C304.796 19.9068 304.383 18.2858 304.383 16.4694C304.383 14.63 304.819 12.9976 305.691 11.5721C306.563 10.1466 307.757 9.03142 309.271 8.22666C310.809 7.42191 312.576 7.01953 314.574 7.01953C315.767 7.01953 316.868 7.169 317.878 7.46794C318.911 7.7438 319.806 8.13466 320.563 8.64055C321.321 9.12335 321.929 9.65218 322.388 10.227C322.847 10.8018 323.099 11.3766 323.146 11.9514H322.044V7.39896H326.313V25.5744H322.01V20.746L322.904 20.9185C322.859 21.4933 322.595 22.0796 322.113 22.6774C321.631 23.2522 321 23.781 320.219 24.2638C319.439 24.7467 318.544 25.149 317.534 25.4709C316.547 25.7698 315.491 25.9193 314.367 25.9193ZM315.434 22.1601C316.765 22.1601 317.936 21.9186 318.945 21.4358C319.978 20.9299 320.77 20.2517 321.321 19.401C321.895 18.5272 322.182 17.55 322.182 16.4694C322.182 15.3658 321.895 14.3886 321.321 13.5379C320.77 12.6872 319.978 12.0204 318.945 11.5375C317.936 11.0547 316.765 10.8133 315.434 10.8133C314.103 10.8133 312.921 11.0547 311.888 11.5375C310.878 12.0204 310.087 12.6872 309.513 13.5379C308.962 14.3886 308.687 15.3658 308.687 16.4694C308.687 17.55 308.962 18.5272 309.513 19.401C310.087 20.2517 310.878 20.9299 311.888 21.4358C312.921 21.9186 314.103 22.1601 315.434 22.1601Z" fill="#465D8E"/>
<path d="M337.812 25.5723V0.0507812H342.082V25.5723H337.812Z" fill="#465D8E"/>
</g>
<defs>
<clipPath id="clip0_589_2546">
<rect width="343" height="34" fill="white"/>
</clipPath>
</defs>
</svg>
