<svg width="523" height="57" viewBox="0 0 523 57" fill="none" xmlns="http://www.w3.org/2000/svg">
<path d="M12.0312 56.2677C10.8085 56.2677 9.51246 56.1699 8.14305 55.9743C6.77365 55.7297 5.45316 55.2651 4.18157 54.5804C2.95889 53.8468 1.95629 52.7464 1.17377 51.2792C0.391258 49.812 0 47.8312 0 45.337V13.2049C0 11.053 0.317902 9.24344 0.953695 7.77622C1.6384 6.30901 2.51872 5.15969 3.59468 4.32826C4.67064 3.44793 5.86886 2.8366 7.18936 2.49425C8.55876 2.10299 9.90371 1.90736 11.2242 1.90736C14.4032 1.95627 17.3131 2.02963 19.9541 2.12744C22.644 2.17635 25.1383 2.24971 27.4369 2.34752C29.7356 2.44534 31.9364 2.54315 34.0394 2.64097V8.72991H13.2049C11.3954 8.72991 9.97707 9.19453 8.95002 10.1238C7.92297 11.053 7.40944 12.5202 7.40944 14.5254V25.7496L30.7382 26.1898V31.9119L7.40944 32.4255V43.5029C7.40944 45.1658 7.67843 46.4129 8.21641 47.2443C8.8033 48.0758 9.5369 48.6382 10.4172 48.9316C11.3465 49.2251 12.3246 49.3718 13.3517 49.3718H34.0394V55.4608C31.7897 55.6075 29.4177 55.7542 26.9234 55.9009C24.4292 55.9987 21.9104 56.0721 19.3673 56.121C16.873 56.2188 14.4276 56.2677 12.0312 56.2677Z" fill="#916D5B"/>
<path d="M53.9936 56.0477C51.5971 56.0477 49.5675 55.6319 47.9046 54.8005C46.2907 53.9691 45.068 52.6486 44.2366 50.839C43.4541 48.9806 43.0628 46.4863 43.0628 43.3562V0H50.3989V42.4025C50.3989 44.4566 50.5945 46.0461 50.9858 47.171C51.4259 48.247 52.0128 49.005 52.7464 49.4452C53.5289 49.8854 54.4337 50.1788 55.4608 50.3255L59.1288 50.7657V56.0477H53.9936Z" fill="#916D5B"/>
<path d="M78.7895 56.4145C77.7624 56.4145 76.5398 56.39 75.1214 56.3411C73.7031 56.2922 72.2359 56.1944 70.7198 56.0477C69.2526 55.9498 67.8832 55.8276 66.6116 55.6809C65.3889 55.5341 64.4108 55.363 63.6772 55.1673V50.7657H80.1833C81.6017 50.7657 82.8243 50.6679 83.8514 50.4722C84.8784 50.2277 85.6609 49.7386 86.1989 49.005C86.7858 48.2714 87.0793 47.1955 87.0793 45.7771V44.1632C87.0793 42.696 86.5902 41.5467 85.612 40.7153C84.6339 39.8838 83.02 39.4681 80.7702 39.4681H75.0481C72.7494 39.4681 70.6954 39.1747 68.8858 38.5878C67.1251 37.952 65.7313 36.9005 64.7042 35.4333C63.7261 33.966 63.237 31.9853 63.237 29.491V27.3636C63.237 24.8693 63.7016 22.8152 64.6309 21.2013C65.609 19.5873 67.1496 18.3891 69.2526 17.6066C71.3556 16.7752 74.1433 16.3595 77.6157 16.3595C79.0829 16.3595 80.6969 16.4328 82.4575 16.5795C84.2671 16.6774 86.0278 16.8241 87.7395 17.0197C89.4513 17.2153 90.8207 17.4354 91.8477 17.68V22.0816H76.2952C74.1433 22.0816 72.4805 22.4484 71.3067 23.182C70.1818 23.9156 69.6194 25.3095 69.6194 27.3636V28.8308C69.6194 30.1024 69.8884 31.0805 70.4264 31.7652C70.9643 32.4499 71.7224 32.8901 72.7005 33.0857C73.7276 33.2813 74.9258 33.3792 76.2952 33.3792H82.1641C85.881 33.3792 88.6932 34.2595 90.6006 36.0202C92.508 37.7319 93.4616 40.1528 93.4616 43.2829V46.2907C93.4616 48.9317 92.8503 50.9858 91.6276 52.453C90.405 53.9202 88.6932 54.9472 86.4924 55.5341C84.3405 56.121 81.7728 56.4145 78.7895 56.4145Z" fill="#916D5B"/>
<path d="M108.281 55.9743L96.8363 16.7263H104.392L112.976 49.1517L122.219 16.7263H128.455L137.698 49.1517L145.915 16.7263H153.471L142.173 55.9743H134.03L125.227 26.8501L116.277 55.9743H108.281Z" fill="#916D5B"/>
<path d="M174.379 56.4145C171.395 56.4145 168.803 56.0966 166.602 55.4608C164.45 54.825 162.665 53.7735 161.247 52.3063C159.829 50.7901 158.777 48.736 158.093 46.1439C157.408 43.5519 157.065 40.2751 157.065 36.3136C157.065 32.2054 157.408 28.8553 158.093 26.2632C158.777 23.6222 159.829 21.5681 161.247 20.1009C162.665 18.6337 164.475 17.631 166.676 17.0931C168.877 16.5062 171.444 16.2127 174.379 16.2127C177.313 16.2127 179.881 16.5062 182.081 17.0931C184.282 17.68 186.092 18.707 187.51 20.1742C188.929 21.6414 189.98 23.6955 190.665 26.3365C191.349 28.9286 191.692 32.2543 191.692 36.3136C191.692 40.324 191.349 43.6497 190.665 46.2907C189.98 48.8828 188.929 50.9124 187.51 52.3796C186.141 53.8468 184.356 54.8983 182.155 55.5341C179.954 56.121 177.362 56.4145 174.379 56.4145ZM174.379 50.3989C175.993 50.3989 177.411 50.2522 178.634 49.9587C179.905 49.6653 180.957 49.0539 181.788 48.1247C182.619 47.1465 183.255 45.7038 183.695 43.7964C184.136 41.889 184.356 39.3703 184.356 36.2402C184.356 33.1102 184.136 30.6159 183.695 28.7574C183.255 26.8501 182.619 25.4318 181.788 24.5025C180.957 23.5733 179.905 22.9619 178.634 22.6685C177.411 22.3261 175.993 22.155 174.379 22.155C172.716 22.155 171.249 22.3261 169.977 22.6685C168.754 22.9619 167.727 23.5733 166.896 24.5025C166.113 25.4318 165.502 26.8501 165.062 28.7574C164.671 30.6159 164.475 33.1102 164.475 36.2402C164.475 39.3703 164.671 41.889 165.062 43.7964C165.502 45.7038 166.113 47.1465 166.896 48.1247C167.727 49.0539 168.754 49.6653 169.977 49.9587C171.249 50.2522 172.716 50.3989 174.379 50.3989Z" fill="#916D5B"/>
<path d="M200.642 55.9743V16.7262H206.291L207.978 23.3287C209.641 21.3235 211.499 19.6362 213.553 18.2668C215.607 16.8974 218.004 16.2127 220.743 16.2127C221.378 16.2127 221.99 16.2616 222.577 16.3594C223.164 16.4084 223.726 16.5062 224.264 16.6529V24.209C223.579 24.1112 222.87 24.0379 222.137 23.989C221.403 23.8912 220.645 23.8422 219.862 23.8422C218.199 23.8422 216.708 24.0379 215.387 24.4291C214.067 24.8204 212.795 25.4317 211.573 26.2631C210.399 27.0457 209.201 28.0238 207.978 29.1976V55.9743H200.642Z" fill="#916D5B"/>
<path d="M245.465 55.9743C242.824 55.9743 240.623 55.5586 238.863 54.7271C237.151 53.8468 235.879 52.453 235.048 50.5456C234.266 48.6382 233.899 46.095 233.948 42.9161L234.241 22.7418H228.005V17.9734L234.388 16.7262L235.488 5.72213H241.284V16.7262H251.921V22.7418H241.284V42.8427C241.284 44.3588 241.43 45.5815 241.724 46.5107C242.017 47.44 242.433 48.1491 242.971 48.6382C243.509 49.1273 244.096 49.4941 244.732 49.7386C245.367 49.9342 245.979 50.0565 246.566 50.1054L251.407 50.5456V55.9743H245.465Z" fill="#916D5B"/>
<path d="M259.33 55.9743V0H266.667V20.9812C268.378 19.7096 270.457 18.5847 272.902 17.6066C275.348 16.5795 277.866 16.066 280.458 16.066C283.295 16.066 285.594 16.6529 287.354 17.8267C289.164 19.0004 290.484 20.6144 291.316 22.6685C292.147 24.6737 292.563 26.9479 292.563 29.491V55.9743H285.227V30.3714C285.227 28.8553 284.909 27.5348 284.273 26.4099C283.686 25.2361 282.83 24.3313 281.706 23.6955C280.63 23.0597 279.334 22.7419 277.817 22.7419C276.35 22.7419 274.981 22.8886 273.709 23.182C272.487 23.4755 271.313 23.8912 270.188 24.4291C269.063 24.9671 267.889 25.5785 266.667 26.2632V55.9743H259.33Z" fill="#916D5B"/>
<path d="M307.969 56.4144C306.501 56.4144 304.961 56.2677 303.347 55.9743C301.782 55.6319 300.486 55.2407 299.459 54.8005V49.005C300.486 49.2006 301.635 49.3963 302.907 49.5919C304.178 49.7386 305.352 49.812 306.428 49.812C307.895 49.812 309.142 49.5919 310.169 49.1517C311.197 48.7116 311.979 48.0024 312.517 47.0243C313.104 45.9972 313.397 44.5544 313.397 42.696V1.90736H320.733V43.6497C320.733 46.6819 320.269 49.1517 319.34 51.0591C318.459 52.9176 317.065 54.287 315.158 55.1673C313.3 55.9987 310.903 56.4144 307.969 56.4144Z" fill="#A9A9A9"/>
<path d="M342.815 56.4145C339.147 56.4145 336.286 55.4363 334.232 53.48C332.227 51.4748 331.224 48.4426 331.224 44.3833V16.7263H338.56V42.4025C338.56 45.337 339.22 47.3177 340.541 48.3448C341.91 49.3718 343.818 49.8853 346.263 49.8853C348.219 49.8853 350.078 49.5919 351.838 49.005C353.648 48.3692 355.409 47.5133 357.12 46.4374V16.7263H364.456V55.9743H358.588L357.12 51.7927C355.213 53.0154 353.012 54.0914 350.518 55.0206C348.073 55.9498 345.505 56.4145 342.815 56.4145Z" fill="#A9A9A9"/>
<path d="M388.299 56.4145C387.272 56.4145 386.049 56.39 384.631 56.3411C383.212 56.2922 381.745 56.1944 380.229 56.0477C378.762 55.9498 377.392 55.8276 376.121 55.6809C374.898 55.5341 373.92 55.363 373.186 55.1673V50.7657H389.693C391.111 50.7657 392.334 50.6679 393.361 50.4722C394.388 50.2277 395.17 49.7386 395.708 49.005C396.295 48.2714 396.589 47.1955 396.589 45.7771V44.1632C396.589 42.696 396.099 41.5467 395.121 40.7153C394.143 39.8838 392.529 39.4681 390.279 39.4681H384.557C382.259 39.4681 380.205 39.1747 378.395 38.5878C376.634 37.952 375.24 36.9005 374.213 35.4333C373.235 33.966 372.746 31.9853 372.746 29.491V27.3636C372.746 24.8693 373.211 22.8152 374.14 21.2013C375.118 19.5873 376.659 18.3891 378.762 17.6066C380.865 16.7752 383.653 16.3595 387.125 16.3595C388.592 16.3595 390.206 16.4328 391.967 16.5795C393.776 16.6774 395.537 16.8241 397.249 17.0197C398.961 17.2153 400.33 17.4354 401.357 17.68V22.0816H385.804C383.653 22.0816 381.99 22.4484 380.816 23.182C379.691 23.9156 379.129 25.3095 379.129 27.3636V28.8308C379.129 30.1024 379.398 31.0805 379.936 31.7652C380.474 32.4499 381.232 32.8901 382.21 33.0857C383.237 33.2813 384.435 33.3792 385.804 33.3792H391.673C395.39 33.3792 398.202 34.2595 400.11 36.0202C402.017 37.7319 402.971 40.1528 402.971 43.2829V46.2907C402.971 48.9317 402.36 50.9858 401.137 52.453C399.914 53.9202 398.202 54.9472 396.002 55.5341C393.85 56.121 391.282 56.4145 388.299 56.4145Z" fill="#A9A9A9"/>
<path d="M424.906 55.9743C422.265 55.9743 420.064 55.5586 418.303 54.7271C416.592 53.8468 415.32 52.453 414.488 50.5456C413.706 48.6382 413.339 46.095 413.388 42.9161L413.682 22.7418H407.446V17.9734L413.828 16.7262L414.929 5.72213H420.724V16.7262H431.361V22.7418H420.724V42.8427C420.724 44.3588 420.871 45.5815 421.164 46.5107C421.458 47.44 421.873 48.1491 422.411 48.6382C422.949 49.1273 423.536 49.4941 424.172 49.7386C424.808 49.9342 425.419 50.0565 426.006 50.1054L430.848 50.5456V55.9743H424.906Z" fill="#A9A9A9"/>
<path d="M438.771 55.9743V16.7263H446.107V55.9743H438.771Z" fill="#A9A9A9"/>
<path d="M439.798 10.1238C438.918 10.1238 438.477 9.70807 438.477 8.87665V2.71434C438.477 1.83401 438.918 1.39384 439.798 1.39384H445.227C445.618 1.39384 445.911 1.51611 446.107 1.76065C446.303 2.00518 446.4 2.32308 446.4 2.71434V8.87665C446.4 9.70807 446.009 10.1238 445.227 10.1238H439.798Z" fill="#A9A9A9"/>
<path d="M470.976 56.4145C468.678 56.4145 466.55 56.121 464.594 55.5341C462.687 54.8983 460.999 53.8468 459.532 52.3796C458.114 50.9124 457.013 48.8828 456.231 46.2907C455.448 43.6986 455.057 40.4218 455.057 36.4603C455.057 32.401 455.424 29.0753 456.157 26.4833C456.891 23.8423 457.943 21.7882 459.312 20.3209C460.73 18.8048 462.442 17.7533 464.447 17.1664C466.452 16.5795 468.702 16.2861 471.196 16.2861C473.251 16.2861 475.402 16.3839 477.652 16.5795C479.951 16.7752 482.176 17.0931 484.328 17.5332V21.8615H473.251C470.854 21.8615 468.849 22.2528 467.235 23.0353C465.621 23.7689 464.423 25.2117 463.64 27.3636C462.858 29.4666 462.466 32.5233 462.466 36.5337C462.466 40.3973 462.882 43.3807 463.714 45.4837C464.545 47.5378 465.743 48.9317 467.308 49.6653C468.922 50.3989 470.927 50.7657 473.324 50.7657H484.915V54.9472C483.79 55.2407 482.445 55.5097 480.88 55.7542C479.364 55.9498 477.75 56.0966 476.038 56.1944C474.375 56.3411 472.688 56.4145 470.976 56.4145Z" fill="#A9A9A9"/>
<path d="M507.803 56.4145C503.646 56.4145 500.321 55.8031 497.826 54.5804C495.381 53.3578 493.62 51.3037 492.544 48.4181C491.517 45.4837 491.004 41.4489 491.004 36.3136C491.004 31.0805 491.517 27.0212 492.544 24.1357C493.62 21.2013 495.381 19.1472 497.826 17.9734C500.272 16.7996 503.573 16.2127 507.73 16.2127C511.349 16.2127 514.259 16.604 516.46 17.3865C518.71 18.1201 520.348 19.4651 521.375 21.4214C522.451 23.3287 522.989 25.9942 522.989 29.4177C522.989 31.8141 522.5 33.7215 521.522 35.1398C520.593 36.5581 519.248 37.5852 517.487 38.221C515.775 38.8568 513.721 39.1747 511.325 39.1747H498.34C498.389 42.0113 498.707 44.2855 499.294 45.9972C499.929 47.6601 501.03 48.8828 502.595 49.6653C504.209 50.3989 506.556 50.7657 509.637 50.7657H521.889V55.1673C519.786 55.4608 517.634 55.7298 515.433 55.9743C513.232 56.2677 510.689 56.4145 507.803 56.4145ZM498.267 34.5529H510.665C512.621 34.5529 514.064 34.1861 514.993 33.4525C515.922 32.7189 516.387 31.374 516.387 29.4177C516.387 27.4614 516.093 25.9208 515.506 24.796C514.968 23.6711 514.064 22.8641 512.792 22.3751C511.52 21.886 509.833 21.6414 507.73 21.6414C505.334 21.6414 503.426 22.0082 502.008 22.7419C500.639 23.4755 499.66 24.7715 499.074 26.63C498.536 28.4884 498.267 31.1294 498.267 34.5529Z" fill="#A9A9A9"/>
</svg>
