<svg width="624" height="76" viewBox="0 0 624 76" fill="none" xmlns="http://www.w3.org/2000/svg">
<path d="M0 74.7847V74.9722H23.8505V74.7847C20.1019 73.8476 17.8996 70.9892 17.8996 66.3035V15.6973C17.8996 11.0115 20.1019 8.15321 23.8505 7.21606V7.02863H0V7.21606C3.74861 8.15321 5.95091 11.0115 5.95091 15.6973V66.3035C5.95091 70.9892 3.74861 73.8476 0 74.7847ZM22.5854 38.3295C34.4403 39.2667 47.9822 41.1878 48.0759 52.2931V66.3035C48.0759 70.9892 45.8736 73.8476 42.125 74.7847V74.9722H65.9755V74.7847C62.2269 73.8476 60.0246 70.9892 60.0246 66.3035V15.6973C60.0246 11.0115 62.2269 8.15321 65.9755 7.21606V7.02863H42.125V7.21606C45.8736 8.15321 48.0759 11.0115 48.0759 15.6973V34.4872C48.0759 37.2049 47.1387 38.1421 44.421 38.1421H22.5854V38.3295Z" fill="#0C2E3B"/>
<path d="M103.743 75.3001C107.913 75.3001 112.036 73.7538 114.754 71.6453L114.661 71.4578C109.084 73.8476 106.742 70.3801 106.742 63.3046C106.742 55.1514 107.116 49.013 107.116 41.5627C107.116 29.6608 100.884 27.7397 95.9643 27.7397C93.762 27.7397 91.9814 28.1145 90.81 28.4425L90.8569 28.63C95.6363 28.1614 95.4958 33.1752 95.4958 41.7033C95.4958 49.7159 95.1209 56.932 95.1209 64.5229C95.1209 70.427 96.1518 75.3001 103.743 75.3001ZM68.1309 63.6326C68.1309 71.1767 73.5664 75.347 80.7356 75.347C86.4991 75.347 90.3883 72.6293 92.2157 70.9424L92.122 70.755C90.6694 71.739 88.8888 72.5355 87.1551 72.5355C83.0785 72.5355 80.6888 68.1309 80.6888 62.4612C80.6888 55.8074 83.8282 49.3879 91.2786 47.9353V47.7479C81.7665 48.0759 68.1309 51.4496 68.1309 63.6326ZM72.5355 46.5296L72.723 46.6233C76.7996 37.9078 81.2979 31.4414 86.6865 29.4266L86.6397 29.2391C82.4693 30.0826 77.2213 30.5511 73.4727 28.2551L73.2853 28.3488C74.1756 33.5032 74.035 39.5478 72.5355 46.5296Z" fill="#0C2E3B"/>
<path d="M114.707 74.7847V74.9722H139.12V74.7847C134.903 73.8476 132.185 71.0361 132.185 66.3504V27.4117C126.422 29.614 120.986 31.1134 114.286 32.5192V32.7066C118.503 33.4095 120.705 35.7992 120.705 41.5158V66.3504C120.705 71.0361 118.456 73.8476 114.707 74.7847ZM134.997 39.7821L135.184 39.829C136.637 36.5021 137.902 35.3775 139.729 35.3775C142.775 35.3775 146.477 39.6415 147.039 46.1547L147.227 46.2016C149.335 40.1101 151.303 35.2838 153.318 30.3169C151.35 28.8643 148.679 27.5054 145.868 27.5054C141.088 27.5054 137.152 31.5352 134.997 39.7821Z" fill="#0C2E3B"/>
<path d="M210.344 40.7193C213.952 40.7193 216.857 37.8141 216.857 34.1592C216.857 30.6449 213.952 27.6929 210.344 27.6929C206.736 27.6929 203.831 30.598 203.831 34.1592C203.831 37.8141 206.736 40.7193 210.344 40.7193ZM146.571 28.302C149.523 29.0517 153.693 34.0655 157.442 40.813C163.908 52.4805 174.451 71.8796 174.451 75.3939L174.638 75.4407L182.323 55.7605L182.135 55.6668C181.714 56.0886 181.058 56.5571 180.449 56.5571C178.527 56.5571 175.529 50.7468 168.641 38.0952C165.782 32.8472 164.564 29.614 168.594 28.302V28.1146H146.571V28.302ZM173.748 28.302C176.231 29.0517 180.73 33.8312 183.916 40.813C189.258 52.4805 198.255 71.8796 198.114 75.347L198.301 75.3939L206.22 55.1983L206.033 55.1045C205.611 55.7137 205.096 56.276 204.533 56.276C202.753 56.276 200.504 51.6371 194.928 38.9387C192.21 32.7535 190.945 29.614 194.974 28.302V28.1146H173.748V28.302Z" fill="#0C2E3B"/>
<path d="M227.587 19.5865C231.617 19.5865 234.85 16.3533 234.85 12.2767C234.85 8.24694 231.617 5.01376 227.587 5.01376C223.511 5.01376 220.278 8.24694 220.278 12.2767C220.278 16.3533 223.511 19.5865 227.587 19.5865ZM216.154 32.4723C220.371 33.1752 222.574 35.5649 222.574 41.2815V66.3504C222.574 71.0361 220.324 73.8476 216.576 74.7847V74.9722H239.817V74.7847C236.069 73.8476 233.819 71.0361 233.819 66.3504V27.1774C228.056 29.3797 222.855 30.8792 216.154 32.2849V32.4723Z" fill="#0C2E3B"/>
<path d="M267.135 75.3471C279.412 75.4409 284.472 68.4591 285.644 64.851L285.457 64.8042C283.395 69.2556 278.053 73.754 271.493 73.754C261.887 73.754 256.78 64.0545 256.686 50.6532C256.592 38.6576 260.622 28.9581 265.87 27.9272V27.7398C253.031 28.2084 243.8 38.7045 244.128 52.8086C244.456 67.1471 254.202 75.2534 267.135 75.3471ZM270.087 27.9272C276.46 29.0987 281.38 39.7822 284.426 48.2634H284.613C284.051 43.156 283.957 34.4405 284.566 28.8175L284.379 28.7238C279.974 31.957 276.835 28.021 270.087 27.7398V27.9272Z" fill="#0C2E3B"/>
<path d="M287.471 74.7847V74.9722H310.713V74.7847C306.964 73.8476 304.715 71.0361 304.715 66.3504V7.62939e-06C298.951 2.20231 293.75 3.70175 287.05 5.10748V5.29492C291.267 5.99778 293.469 8.38752 293.469 14.1041V66.3504C293.469 71.0361 291.22 73.8476 287.471 74.7847ZM308.838 52.5274L308.932 52.6679C310.806 53.1365 312.54 56.6508 317.226 64.5698C320.272 69.7241 323.271 75.347 331.189 75.347C335.407 75.347 340.608 73.7539 343.326 71.5984L343.185 71.411C342.154 71.8796 341.123 72.2544 339.858 72.2544C336.578 72.2544 333.814 69.0681 326.504 57.6817C320.975 49.1068 319.007 45.9205 319.194 43.2964L319.053 43.1559L308.838 52.5274ZM317.507 28.302C322.802 29.286 327.441 34.5809 322.568 40.0164L322.755 40.157C327.769 34.9089 333.767 30.5043 339.671 28.302V28.1146H317.507V28.302Z" fill="#0C2E3B"/>
<path d="M373.877 75.347C391.073 75.347 398.852 63.8201 400.586 58.2909L400.398 58.244C396.743 65.1321 388.777 72.8167 378.609 72.8167C366.895 72.8167 356.258 62.6486 355.93 40.1101C355.649 19.5396 363.99 8.10636 372.565 6.60692V6.41949C356.024 7.4035 341.264 20.4299 341.592 42.2656C341.92 64.1949 357.336 75.347 373.877 75.347ZM378.141 6.60692C387.747 8.34065 393.791 20.6173 397.212 32.8003L397.399 32.7066C397.493 23.3819 398.383 12.6984 399.461 7.77836L399.273 7.68465C392.854 11.6675 387.231 6.79436 378.188 6.41949L378.141 6.60692Z" fill="#137383"/>
<path d="M445.898 75.3475C450.396 75.3475 454.519 73.7543 457.237 71.6457L457.143 71.4583C451.567 73.848 449.131 71.0365 449.178 63.3519L449.459 27.4121C443.93 29.6144 438.494 31.1139 431.793 32.5196V32.707C436.011 33.4099 438.26 35.7996 438.213 41.5163L437.932 64.5702C437.838 70.4742 438.822 75.3475 445.898 75.3475ZM401.477 32.707C405.694 33.4099 407.802 35.7059 407.802 41.4694C407.802 47.5609 407.568 53.6992 407.568 61.009C407.568 71.552 412.582 74.832 419.095 74.832C425.28 74.832 430.247 71.7863 433.715 68.0845L433.621 67.8971C431.653 69.4902 428.748 71.5051 425.187 71.5051C421.063 71.5051 418.908 67.7097 418.908 60.2593C418.908 52.8089 419.142 45.6397 419.142 27.459C413.378 29.6144 408.177 31.1139 401.477 32.5196V32.707Z" fill="#137383"/>
<path d="M457.195 74.7851V74.9726H480.437V74.7851C476.688 73.848 474.439 71.0365 474.439 66.3508V27.4121C468.675 29.6144 463.474 31.1139 456.773 32.5196V32.707C460.991 33.4099 463.193 35.7996 463.193 41.5163V66.3508C463.193 71.0365 460.944 73.848 457.195 74.7851ZM479.125 34.4876L479.218 34.675C481.186 33.0819 484.232 31.067 487.793 31.067C492.151 31.067 494.166 34.3939 494.166 42.3128C494.166 49.7632 493.744 57.1198 493.744 64.5702C493.744 70.4742 494.775 75.3475 501.897 75.3475C506.583 75.3475 510.707 73.7543 513.424 71.6457L513.331 71.4583C507.755 73.848 505.365 70.4274 505.365 63.3519C505.365 55.1987 505.786 48.8729 505.786 41.5631C505.786 31.4887 501.101 27.7401 493.932 27.7401C487.793 27.7401 482.592 30.7859 479.125 34.4876Z" fill="#137383"/>
<path d="M534.694 75.0658V75.2533C541.161 75.019 548.705 72.1138 548.705 63.3983C548.705 54.7765 540.879 49.7159 535.116 45.7799C527.9 40.8598 523.964 37.3923 523.964 33.222C523.964 30.1763 525.932 28.3488 529.352 27.8334V27.646C522.886 27.8802 515.342 31.3009 515.342 39.8289C515.342 46.8107 520.356 51.965 527.947 57.2131C534.928 62.0394 539.989 65.3663 539.989 69.9584C539.989 72.9573 538.115 74.5504 534.694 75.0658ZM514.452 56.0885C515.248 62.4143 515.342 69.4429 514.733 74.4567L514.92 74.5504C518.435 73.0041 523.964 74.691 530.477 75.2533V75.0658C522.277 73.0978 517.779 63.2577 514.639 55.9948L514.452 56.0885ZM533.101 27.8802C540.786 30.4574 544.394 40.1101 547.299 46.6701L547.486 46.5764C546.643 40.0632 546.127 33.1283 546.737 28.2083L546.549 28.1145C543.878 30.2231 539.005 28.1614 533.101 27.6928V27.8802Z" fill="#137383"/>
<path d="M577.101 75.3476C590.128 75.4413 595.844 67.0538 597.016 62.9772L596.828 62.9303C594.767 67.8503 588.769 73.7544 581.131 73.7544C571.197 73.7544 566.277 63.8675 566.183 50.4193C566.137 38.6581 570.12 28.9585 575.368 27.9277V27.7402C562.529 28.2088 553.298 38.7049 553.626 53.0434C553.954 67.1475 563.513 75.2538 577.101 75.3476ZM570.869 49.2479L597.906 49.0136C597.578 37.2055 590.643 28.3025 579.585 27.7402V27.9277C583.099 29.2397 585.676 34.1597 585.817 40.2512C585.911 46.2021 583.568 48.1702 570.869 49.0604V49.2479Z" fill="#137383"/>
<path d="M600.437 74.7847V74.9722H623.679V74.7847C619.696 73.8476 617.681 70.8487 617.681 66.3504V0C611.964 2.15545 606.763 3.65489 600.016 5.10747V5.29491C604.233 5.99777 606.435 8.38751 606.435 14.1041V66.3504C606.435 71.0361 604.327 73.8476 600.437 74.7847Z" fill="#137383"/>
</svg>
