<svg width="15" height="15" viewBox="0 0 15 15" fill="none" xmlns="http://www.w3.org/2000/svg">
<path d="M14.955 4.40766C14.9184 3.60937 14.7905 3.06422 14.6067 2.58703C14.408 2.06719 14.1136 1.62422 13.7423 1.25906L13.7419 1.25859C13.3763 0.886875 12.9333 0.592969 12.4383 0.402656L12.413 0.394219C11.9358 0.208594 11.3911 0.0820312 10.5923 0.0459375C9.7936 0.00984375 9.53719 0 7.5 0C5.46281 0 5.20781 0.0084375 4.40766 0.045C3.6075 0.0815625 3.06422 0.208594 2.58703 0.394688C2.06719 0.593438 1.62422 0.887344 1.25906 1.25859L1.25859 1.25906C0.886875 1.62469 0.592969 2.06766 0.402656 2.56219L0.394219 2.5875C0.208594 3.06469 0.0820313 3.60984 0.0459375 4.40813C0.00984375 5.20641 0 5.46328 0 7.50047C0 9.53766 0.0084375 9.79266 0.045 10.5928C0.0815625 11.393 0.209531 11.9363 0.393281 12.4134C0.592031 12.9333 0.886406 13.3767 1.25813 13.7419L1.25859 13.7423C1.62422 14.1141 2.06719 14.4084 2.56172 14.5983L2.58703 14.6067C3.06422 14.7923 3.60891 14.9189 4.40766 14.955C5.20641 14.9911 5.46281 15 7.5 15C9.53719 15 9.79219 14.9916 10.5923 14.955C11.3925 14.9184 11.9358 14.7905 12.413 14.6067C13.4231 14.2083 14.2083 13.4236 14.5973 12.4392L14.6063 12.4134C14.7919 11.9363 14.9184 11.3911 14.9545 10.5928C14.9906 9.79453 14.9995 9.53766 14.9995 7.50047C14.9995 5.46328 14.9906 5.20828 14.955 4.40813V4.40766ZM13.605 10.5305C13.5722 11.2617 13.4494 11.6588 13.3467 11.9231C13.0889 12.5794 12.5794 13.0889 11.94 13.3406L11.9231 13.3463C11.6602 13.4489 11.2617 13.5713 10.5305 13.6045C9.73969 13.6406 9.5025 13.6481 7.5 13.6481C5.4975 13.6481 5.26031 13.6406 4.47141 13.6045C3.74016 13.5717 3.34313 13.4489 3.07875 13.3463C2.74078 13.2192 2.4525 13.028 2.21719 12.7856L2.21672 12.7852C1.97391 12.5489 1.78266 12.2611 1.66078 11.9391L1.65563 11.9231C1.55297 11.6602 1.43063 11.2617 1.39734 10.5305C1.36125 9.73969 1.35375 9.5025 1.35375 7.5C1.35375 5.4975 1.35984 5.25984 1.39594 4.47094C1.42875 3.73969 1.55156 3.34266 1.65422 3.07828C1.78078 2.73937 1.97203 2.45109 2.21438 2.21484L2.21484 2.21437C2.45109 1.97156 2.73891 1.78031 3.06094 1.65844L3.07688 1.65328C3.33984 1.55062 3.73828 1.42828 4.46953 1.395C5.26031 1.35891 5.4975 1.35141 7.5 1.35141L10.5305 1.395C11.2617 1.42781 11.6588 1.55062 11.9231 1.65328C12.2611 1.78031 12.5494 1.97156 12.7847 2.21391L12.7852 2.21437C13.0284 2.45062 13.2197 2.73844 13.3416 3.06047L13.3467 3.07641C13.4494 3.33938 13.5717 3.73781 13.605 4.46906C13.6411 5.25984 13.6486 5.49703 13.6486 7.49953C13.6486 9.50203 13.6402 9.73922 13.6041 10.53L13.605 10.5305Z" fill="black"/>
<path d="M7.49969 3.65039C5.3725 3.65039 3.64844 5.37445 3.64844 7.50164C3.64844 9.62883 5.3725 11.3529 7.49969 11.3529C9.62688 11.3529 11.3509 9.62883 11.3509 7.50164C11.3509 5.37492 9.62641 3.65039 7.49969 3.65039ZM7.49969 10.0015C6.11969 10.0015 5.00125 8.88305 5.00125 7.50305C5.00125 6.12305 6.11969 5.00461 7.49969 5.00461C8.87969 5.00461 9.99813 6.12305 9.99813 7.50305C9.99813 8.88305 8.87969 10.0015 7.49969 10.0015Z" fill="black"/>
<path d="M12.4094 3.49914C12.4094 3.99648 12.0063 4.39961 11.5094 4.39961C11.0125 4.39961 10.6094 3.99648 10.6094 3.49961C10.6094 3.00227 11.0125 2.59961 11.5094 2.59961C12.0067 2.59961 12.4094 3.00227 12.4094 3.49914Z" fill="black"/>
</svg>
