<svg width="29" height="24" viewBox="0 0 29 24" fill="none" xmlns="http://www.w3.org/2000/svg">
<path d="M28.8562 11.6655L24.5833 2.77575C24.5831 2.77551 24.583 2.77527 24.5829 2.77503L24.5773 2.76347C24.563 2.73373 24.546 2.7058 24.5271 2.67919C24.5221 2.67196 24.516 2.66546 24.5107 2.6586C24.4938 2.63669 24.4756 2.6161 24.456 2.59671C24.4483 2.58913 24.4404 2.58166 24.4323 2.57444C24.4106 2.55529 24.3878 2.5376 24.3635 2.52146C24.3572 2.51713 24.3514 2.51231 24.3448 2.50822C24.3143 2.48943 24.2821 2.4733 24.2485 2.45945C24.239 2.45548 24.229 2.45259 24.2192 2.4491C24.1929 2.43971 24.1662 2.43188 24.1386 2.42574C24.1272 2.42321 24.116 2.42068 24.1045 2.41876C24.0667 2.41226 24.0282 2.40792 23.9889 2.40792H16.449C16.3199 2.03335 16.0692 1.71031 15.7412 1.47637V0.602011C15.7412 0.26958 15.4522 0 15.0959 0H13.8914C13.5351 0 13.2462 0.26958 13.2462 0.602011V1.4907C12.9281 1.72344 12.6852 2.04118 12.5589 2.40804H4.99847C4.95911 2.40804 4.92078 2.4125 4.88284 2.41888C4.87123 2.42081 4.86013 2.42333 4.84878 2.42586C4.82116 2.432 4.79432 2.43983 4.76812 2.44922C4.75831 2.45271 4.74838 2.4556 4.73883 2.45957C4.70528 2.47342 4.67302 2.48943 4.64256 2.50834C4.63598 2.51243 4.63017 2.51725 4.62385 2.52158C4.59959 2.53772 4.57675 2.55529 4.55507 2.57456C4.54681 2.58178 4.53907 2.58925 4.53119 2.59683C4.51145 2.61622 4.49338 2.63693 4.47648 2.65872C4.47106 2.6657 4.46512 2.67221 4.46009 2.67931C4.44125 2.70592 4.42421 2.73385 4.40989 2.76359L4.40434 2.77515C4.40421 2.77539 4.40408 2.77563 4.40395 2.77587L0.115754 11.6971C0.0432304 11.7945 0 11.9123 0 12.04C0 14.6115 2.2423 16.7036 4.99847 16.7036C7.75463 16.7036 9.99694 14.6115 9.99694 12.04C9.99694 11.9123 9.95384 11.7946 9.88118 11.6972L5.99496 3.61182H12.5745C12.7045 3.96159 12.9398 4.26488 13.2461 4.48907V19.5852H7.52442C7.28297 19.5852 7.06166 19.711 6.95094 19.9113L5.17604 23.122C5.07293 23.3087 5.08145 23.532 5.19849 23.7113C5.31566 23.8906 5.52433 24 5.74952 24H23.2377C23.2385 23.9999 23.2393 24 23.2403 24C23.5966 24 23.8855 23.7304 23.8855 23.398C23.8855 23.28 23.8491 23.1699 23.7863 23.0771L22.036 19.9113C21.9253 19.711 21.704 19.5852 21.4626 19.5852H15.741V4.5034C16.0571 4.27789 16.3003 3.9693 16.4331 3.61182H22.9923L19.0596 11.7936C19.0586 11.7958 19.058 11.798 19.057 11.8001C19.054 11.8066 19.0518 11.8134 19.049 11.82C19.0374 11.8476 19.0281 11.8757 19.021 11.9042C19.0192 11.9116 19.0169 11.9188 19.0153 11.9263C19.0082 11.9609 19.0046 11.9957 19.0041 12.0306C19.0041 12.0338 19.0031 12.0367 19.0031 12.04C19.0031 14.6115 21.2454 16.7036 24.0015 16.7036C26.7577 16.7036 29 14.6115 29 12.04C29 11.8977 28.9448 11.7686 28.8562 11.6655ZM8.34231 11.438H1.65463L4.99847 4.48101L8.34231 11.438ZM15.2566 2.98983C15.2566 3.37716 14.9189 3.69213 14.5039 3.69213C14.0887 3.69213 13.751 3.37704 13.751 2.98983C13.751 2.60249 14.0887 2.28752 14.5039 2.28752C14.9189 2.2874 15.2566 2.60249 15.2566 2.98983ZM20.6448 11.438L23.9888 4.48101L27.3326 11.438H20.6448Z" fill="white"/>
</svg>
