<svg width="95" height="118" viewBox="0 0 95 118" fill="none" xmlns="http://www.w3.org/2000/svg">
<path d="M47.5 56.05C43.0008 56.05 38.6859 54.496 35.5044 51.7298C32.323 48.9637 30.5357 45.2119 30.5357 41.3C30.5357 37.3881 32.323 33.6363 35.5044 30.8702C38.6859 28.104 43.0008 26.55 47.5 26.55C51.9992 26.55 56.3141 28.104 59.4956 30.8702C62.677 33.6363 64.4643 37.3881 64.4643 41.3C64.4643 43.237 64.0255 45.155 63.173 46.9446C62.3204 48.7341 61.0708 50.3602 59.4956 51.7298C57.9203 53.0995 56.0502 54.186 53.992 54.9272C51.9338 55.6685 49.7278 56.05 47.5 56.05ZM47.5 0C34.9022 0 22.8204 4.35124 13.9124 12.0965C5.00445 19.8417 0 30.3466 0 41.3C0 72.275 47.5 118 47.5 118C47.5 118 95 72.275 95 41.3C95 30.3466 89.9955 19.8417 81.0876 12.0965C72.1796 4.35124 60.0978 0 47.5 0Z" fill="black"/>
</svg>
