<svg width="98" height="20" viewBox="0 0 98 20" fill="none" xmlns="http://www.w3.org/2000/svg">
<path d="M11.159 9C11.5915 8.34959 12.1827 7.78862 12.9324 7.31707C13.6821 6.82927 14.4534 6.58537 15.2463 6.58537C16.3132 6.58537 17.1494 6.9187 17.755 7.58537C18.3749 8.25203 18.6849 9.15447 18.6849 10.2927V17.4146C18.6849 17.9187 18.8146 18.252 19.0742 18.4146C19.3481 18.5772 19.795 18.7073 20.415 18.8049V19.7561H14.7922V18.8049C15.4121 18.7073 15.8519 18.5772 16.1114 18.4146C16.3853 18.252 16.5223 17.9187 16.5223 17.4146V10.9268C16.5223 9.34959 15.8086 8.56098 14.3813 8.56098C13.8623 8.56098 13.3144 8.69919 12.7377 8.97561C12.161 9.23577 11.6781 9.57724 11.2888 10V17.4146C11.2888 17.9187 11.4185 18.252 11.6781 18.4146C11.952 18.5772 12.3989 18.7073 13.0189 18.8049V19.7561H7.3961V18.8049C8.01605 18.7073 8.45577 18.5772 8.71529 18.4146C8.98922 18.252 9.12618 17.9187 9.12618 17.4146V10.9268C9.12618 9.34959 8.41252 8.56098 6.9852 8.56098C6.46618 8.56098 5.91832 8.69919 5.34163 8.97561C4.76493 9.23577 4.28195 9.57724 3.89268 10V17.4146C3.89268 17.9187 4.02244 18.252 4.28195 18.4146C4.55588 18.5772 5.00282 18.7073 5.62277 18.8049V19.7561H0V18.8049C0.619946 18.7073 1.05968 18.5772 1.31919 18.4146C1.59312 18.252 1.73008 17.9187 1.73008 17.4146V9.2439L0.10813 8.39024V7.80488L3.2439 6.58537H4.00081L3.89268 8.90244C4.33962 8.26829 4.91632 7.72358 5.62277 7.26829C6.34363 6.81301 7.08613 6.58537 7.85025 6.58537C8.70087 6.58537 9.41453 6.79675 9.99122 7.21951C10.5679 7.64228 10.9572 8.23577 11.159 9Z" fill="black"/>
<path d="M31.5361 16.561C31.5361 17.0976 31.6226 17.5122 31.7957 17.8049C31.9687 18.0813 32.221 18.2195 32.5526 18.2195C32.8697 18.2195 33.1869 18.1707 33.5041 18.0732L33.7204 18.8293C33.3455 19.2358 32.9779 19.5366 32.6174 19.7317C32.257 19.9106 31.875 20 31.4713 20C30.9378 20 30.5125 19.813 30.1953 19.439C29.8781 19.0488 29.6258 18.4959 29.4384 17.7805C28.9194 18.4309 28.3355 18.9675 27.6867 19.3902C27.0523 19.7967 26.2882 20 25.3944 20C24.3563 20 23.5489 19.6911 22.9722 19.0732C22.3955 18.4553 22.1072 17.6504 22.1072 16.6585C22.1072 15.9431 22.237 15.374 22.4965 14.9512C22.7704 14.5285 23.1164 14.2114 23.5345 14C23.9526 13.7724 24.5077 13.5447 25.1997 13.3171L29.3735 11.9268V11.4146C29.3735 10.3577 29.1501 9.50407 28.7031 8.85366C28.2562 8.18699 27.5858 7.85366 26.6919 7.85366C26.0864 7.85366 25.6322 8 25.3295 8.29268C25.0411 8.58537 24.897 9.04065 24.897 9.65854C24.897 9.90244 24.933 10.2927 25.0051 10.8293L23.2101 11.0732C22.8929 10.7154 22.7344 10.2764 22.7344 9.7561C22.7344 8.78049 23.1452 8.00813 23.967 7.43903C24.8032 6.86992 25.8485 6.58537 27.1028 6.58537C30.0584 6.58537 31.5361 8.14634 31.5361 11.2683V16.561ZM26.3675 18.2439C26.9442 18.2439 27.4272 18.1301 27.8165 17.9024C28.2202 17.6748 28.7392 17.2846 29.3735 16.7317V13.122L25.589 14.4634C25.1997 14.6098 24.9042 14.813 24.7023 15.0732C24.5005 15.3333 24.3996 15.6911 24.3996 16.1463C24.3996 16.8293 24.5726 17.3496 24.9186 17.7073C25.279 18.065 25.762 18.2439 26.3675 18.2439Z" fill="black"/>
<path d="M38.9615 10.3171C39.5814 9.0813 40.1509 8.15447 40.6699 7.53659C41.189 6.90244 41.8089 6.58537 42.5298 6.58537C42.9911 6.58537 43.3443 6.69919 43.5894 6.92683V9.19512H42.7028C41.9675 9.19512 41.3331 9.34959 40.7997 9.65854C40.2662 9.95122 39.6535 10.5528 38.9615 11.4634V17.3171C38.9615 17.7236 39.0264 18.0163 39.1561 18.1951C39.3003 18.374 39.5021 18.5041 39.7616 18.5854C40.0356 18.6504 40.4897 18.7236 41.1241 18.8049V19.7561H35.0688V18.8049C35.6887 18.7073 36.1285 18.5772 36.388 18.4146C36.6619 18.252 36.7989 17.9187 36.7989 17.4146V9.2439L35.1769 8.39024V7.80488L38.3127 6.58537H39.0696L38.9615 10.3171Z" fill="black"/>
<path d="M48.5997 17.4146C48.5997 17.9187 48.7295 18.252 48.989 18.4146C49.2629 18.5772 49.7099 18.7073 50.3298 18.8049V19.7561H44.7071V18.8049C45.327 18.7073 45.7667 18.5772 46.0263 18.4146C46.3002 18.252 46.4371 17.9187 46.4371 17.4146V2.46341L44.8152 1.80488V1.21951L47.951 0H48.7079L48.5997 2.09756V17.4146ZM52.5141 9.31707C52.7592 9.04065 52.8817 8.80488 52.8817 8.60976C52.8817 8.33333 52.788 8.15447 52.6006 8.07317C52.4131 7.97561 52.0095 7.87805 51.3895 7.78049V6.82927H56.5797V7.78049C56.104 7.92683 55.7508 8.05691 55.5201 8.17073C55.2894 8.28455 55.0443 8.46342 54.7848 8.70732L50.9786 12.439L57.3367 18.9756V19.7561H54.9145L48.7295 13.0976L52.5141 9.31707Z" fill="black"/>
<path d="M62.5686 20C61.7324 20 60.9611 19.8862 60.2547 19.6585C59.5626 19.4309 58.9859 19.122 58.5246 18.7317L58.3948 15.4878H59.3031C59.5338 16.561 59.9158 17.3659 60.4493 17.9024C60.9827 18.439 61.6892 18.7073 62.5686 18.7073C63.3328 18.7073 63.9239 18.5203 64.342 18.1463C64.7745 17.7724 64.9908 17.2358 64.9908 16.5366C64.9908 15.9837 64.8322 15.561 64.515 15.2683C64.1978 14.9756 63.7004 14.7154 63.0228 14.4878L61.509 13.9512C60.5142 13.6098 59.7717 13.1707 59.2815 12.6341C58.8057 12.0976 58.5678 11.3089 58.5678 10.2683C58.5678 9.13008 58.9283 8.23577 59.6491 7.58537C60.37 6.9187 61.3432 6.58537 62.5686 6.58537C63.9671 6.58537 65.207 6.93496 66.2883 7.63415V10.6585H65.38C65.207 9.68293 64.8826 8.97561 64.4068 8.53659C63.9455 8.09756 63.3111 7.87805 62.5038 7.87805C61.8982 7.87805 61.4153 8.04065 61.0548 8.36585C60.6944 8.6748 60.5142 9.13821 60.5142 9.7561C60.5142 10.2439 60.6367 10.626 60.8818 10.9024C61.1413 11.1626 61.5522 11.3984 62.1145 11.6098L63.8229 12.1951C64.9043 12.5528 65.6972 13.0244 66.2018 13.6098C66.7064 14.1789 66.9587 15.0163 66.9587 16.122C66.9587 17.3252 66.555 18.2764 65.7477 18.9756C64.9547 19.6585 63.895 20 62.5686 20Z" fill="black"/>
<path d="M77.813 17.6098C77.2939 18.3089 76.6884 18.8862 75.9964 19.3415C75.3188 19.7805 74.5835 20 73.7905 20C72.666 20 71.7793 19.6748 71.1305 19.0244C70.4962 18.374 70.179 17.3659 70.179 16V9.36585C70.179 8.94309 70.078 8.65041 69.8762 8.48781C69.6744 8.30894 69.2923 8.17886 68.73 8.09756L68.3408 8.04878V7.07317L71.8874 6.58537H72.4497L72.3416 9.12195V15.6585C72.3416 17.3008 73.0696 18.122 74.5258 18.122C75.1313 18.122 75.6936 17.9837 76.2126 17.7073C76.7317 17.4146 77.2651 17.0163 77.813 16.5122V9.36585C77.813 8.94309 77.712 8.65041 77.5102 8.48781C77.3083 8.30894 76.9263 8.17886 76.364 8.09756L75.9747 8.04878V7.07317L79.5214 6.58537H80.0837L79.9756 9.12195V16.9756C79.9756 17.3821 80.0549 17.6585 80.2134 17.8049C80.372 17.935 80.7108 18.0325 81.2299 18.0976L81.8138 18.1707V19.1463L78.0292 20H77.7048L77.813 17.6098Z" fill="black"/>
<path d="M87.2145 17.4146C87.2145 17.9187 87.3443 18.252 87.6038 18.4146C87.8777 18.5772 88.3247 18.7073 88.9446 18.8049V19.7561H83.3218V18.8049C83.9418 18.7073 84.3815 18.5772 84.641 18.4146C84.915 18.252 85.0519 17.9187 85.0519 17.4146V2.46341L83.43 1.80488V1.21951L86.5657 0H87.3227L87.2145 2.09756V17.4146Z" fill="black"/>
<path d="M94.0208 6.82927H97.3945V8.17073H94.0208V15.6829C94.0208 16.5447 94.1866 17.187 94.5182 17.6098C94.8498 18.0163 95.3472 18.2195 96.0104 18.2195C96.6304 18.2195 97.207 18.0732 97.7405 17.7805L98 18.4634C97.1926 19.4878 96.1906 20 94.994 20C94.0857 20 93.336 19.7154 92.7449 19.1463C92.1538 18.5772 91.8582 17.7073 91.8582 16.5366V8.17073H90.193V7.31707C90.7841 6.92683 91.3248 6.47968 91.815 5.97561C92.3052 5.45529 92.8242 4.81301 93.372 4.04878H94.0208V6.82927Z" fill="black"/>
</svg>
