<svg width="10" height="10" viewBox="0 0 10 10" fill="none" xmlns="http://www.w3.org/2000/svg">
<path d="M9.28571 5.71038H5.71429V9.28181C5.71429 9.47125 5.63903 9.65293 5.50508 9.78688C5.37112 9.92084 5.18944 9.99609 5 9.99609C4.81056 9.99609 4.62888 9.92084 4.49492 9.78688C4.36097 9.65293 4.28571 9.47125 4.28571 9.28181V5.71038H0.714286C0.524845 5.71038 0.343164 5.63512 0.20921 5.50117C0.075255 5.36722 0 5.18553 0 4.99609C0 4.80665 0.075255 4.62497 0.20921 4.49102C0.343164 4.35706 0.524845 4.28181 0.714286 4.28181H4.28571V0.710379C4.28571 0.520939 4.36097 0.339258 4.49492 0.205303C4.62888 0.0713484 4.81056 -0.00390625 5 -0.00390625C5.18944 -0.00390625 5.37112 0.0713484 5.50508 0.205303C5.63903 0.339258 5.71429 0.520939 5.71429 0.710379V4.28181H9.28571C9.47515 4.28181 9.65684 4.35706 9.79079 4.49102C9.92475 4.62497 10 4.80665 10 4.99609C10 5.18553 9.92475 5.36722 9.79079 5.50117C9.65684 5.63512 9.47515 5.71038 9.28571 5.71038Z" fill="#333333"/>
</svg>
