<svg width="60" height="9" viewBox="0 0 60 9" fill="none" xmlns="http://www.w3.org/2000/svg">
<path d="M4.1017 0.331439C4.24027 -0.11048 4.84358 -0.11048 4.98214 0.33144L5.73702 2.73899C5.79899 2.93663 5.97671 3.07043 6.17724 3.07043H8.62009C9.06848 3.07043 9.25492 3.66503 8.89216 3.93815L6.91586 5.4261C6.75362 5.54825 6.68574 5.76475 6.74771 5.96238L7.50259 8.36994C7.64115 8.81186 7.15306 9.17934 6.7903 8.90622L4.81399 7.41827C4.65176 7.29612 4.43209 7.29612 4.26985 7.41827L2.29355 8.90622C1.93079 9.17934 1.4427 8.81186 1.58126 8.36994L2.33614 5.96238C2.39811 5.76475 2.33022 5.54825 2.16799 5.4261L0.191691 3.93815C-0.17107 3.66503 0.0153644 3.07043 0.463761 3.07043H2.90661C3.10713 3.07043 3.28486 2.93663 3.34682 2.73899L4.1017 0.331439Z" fill="#F5B942"/>
<path d="M16.8307 0.331439C16.9693 -0.11048 17.5726 -0.11048 17.7112 0.33144L18.4661 2.73899C18.528 2.93663 18.7058 3.07043 18.9063 3.07043H21.3491C21.7975 3.07043 21.984 3.66503 21.6212 3.93815L19.6449 5.4261C19.4827 5.54825 19.4148 5.76475 19.4767 5.96238L20.2316 8.36994C20.3702 8.81186 19.8821 9.17934 19.5193 8.90622L17.543 7.41827C17.3808 7.29612 17.1611 7.29612 16.9989 7.41827L15.0226 8.90622C14.6598 9.17934 14.1717 8.81186 14.3103 8.36994L15.0652 5.96238C15.1271 5.76475 15.0593 5.54825 14.897 5.4261L12.9207 3.93815C12.558 3.66503 12.7444 3.07043 13.1928 3.07043H15.6356C15.8362 3.07043 16.0139 2.93663 16.0759 2.73899L16.8307 0.331439Z" fill="#F5B942"/>
<path d="M29.5598 0.331439C29.6983 -0.11048 30.3017 -0.11048 30.4402 0.33144L31.1951 2.73899C31.2571 2.93663 31.4348 3.07043 31.6353 3.07043H34.0782C34.5266 3.07043 34.713 3.66503 34.3502 3.93815L32.3739 5.4261C32.2117 5.54825 32.1438 5.76475 32.2058 5.96238L32.9607 8.36994C33.0992 8.81186 32.6111 9.17934 32.2484 8.90622L30.2721 7.41827C30.1098 7.29612 29.8902 7.29612 29.7279 7.41827L27.7516 8.90622C27.3889 9.17934 26.9008 8.81186 27.0393 8.36994L27.7942 5.96238C27.8562 5.76475 27.7883 5.54825 27.6261 5.4261L25.6498 3.93815C25.287 3.66503 25.4734 3.07043 25.9218 3.07043H28.3647C28.5652 3.07043 28.7429 2.93663 28.8049 2.73899L29.5598 0.331439Z" fill="#F5B942"/>
<path d="M42.2888 0.331439C42.4274 -0.11048 43.0307 -0.11048 43.1693 0.33144L43.9241 2.73899C43.9861 2.93663 44.1638 3.07043 44.3644 3.07043H46.8072C47.2556 3.07043 47.442 3.66503 47.0793 3.93815L45.103 5.4261C44.9407 5.54825 44.8729 5.76475 44.9348 5.96238L45.6897 8.36994C45.8283 8.81186 45.3402 9.17934 44.9774 8.90622L43.0011 7.41827C42.8389 7.29612 42.6192 7.29612 42.457 7.41827L40.4807 8.90622C40.1179 9.17934 39.6298 8.81186 39.7684 8.36994L40.5233 5.96238C40.5852 5.76475 40.5173 5.54825 40.3551 5.4261L38.3788 3.93815C38.016 3.66503 38.2025 3.07043 38.6509 3.07043H41.0937C41.2942 3.07043 41.472 2.93663 41.5339 2.73899L42.2888 0.331439Z" fill="#F5B942"/>
<path d="M55.0179 0.331439C55.1564 -0.11048 55.7597 -0.11048 55.8983 0.33144L56.6532 2.73899C56.7151 2.93663 56.8929 3.07043 57.0934 3.07043H59.5362C59.9846 3.07043 60.1711 3.66503 59.8083 3.93815L57.832 5.4261C57.6698 5.54825 57.6019 5.76475 57.6639 5.96238L58.4187 8.36994C58.5573 8.81186 58.0692 9.17934 57.7064 8.90622L55.7301 7.41827C55.5679 7.29612 55.3482 7.29612 55.186 7.41827L53.2097 8.90622C52.8469 9.17934 52.3589 8.81186 52.4974 8.36994L53.2523 5.96238C53.3143 5.76475 53.2464 5.54825 53.0841 5.4261L51.1078 3.93815C50.7451 3.66503 50.9315 3.07043 51.3799 3.07043H53.8228C54.0233 3.07043 54.201 2.93663 54.263 2.73899L55.0179 0.331439Z" fill="#F5B942"/>
</svg>
