<svg width="16" height="13" viewBox="0 0 16 13" fill="none" xmlns="http://www.w3.org/2000/svg">
<path d="M16 1.54425C15.4458 1.80061 14.8029 1.97734 14.1266 2.04072L14.103 2.04235C14.7846 1.64176 15.2972 1.01731 15.5444 0.271798L15.5509 0.249047C14.9483 0.618351 14.2447 0.895431 13.4939 1.03966L13.4544 1.04616C12.8787 0.403025 12.0448 0 11.1169 0C11.1136 0 11.1107 0 11.1075 0C11.1059 0 11.1046 0 11.103 0C9.28624 0 7.81311 1.4695 7.81311 3.28271C7.81311 3.28433 7.81311 3.28636 7.81311 3.28799V3.28758C7.82248 3.55735 7.85871 3.81371 7.91816 4.06113L7.91287 4.03472C5.18282 3.89618 2.78339 2.59204 1.1873 0.615507L1.17345 0.597631C0.891287 1.05835 0.723941 1.61616 0.723941 2.21298C0.723941 2.22314 0.723941 2.23289 0.723941 2.24305V2.24142C0.733306 3.37209 1.29927 4.36868 2.16083 4.97403L2.17142 4.98134C1.62011 4.97931 1.10423 4.83143 0.659202 4.57507L0.67386 4.58279V4.63276C0.679153 6.20911 1.80578 7.52138 3.29886 7.81714L3.31963 7.8204C3.06881 7.87484 2.77728 7.91059 2.47842 7.91993H2.47068C2.44096 7.92115 2.40635 7.92196 2.37134 7.92196C2.19422 7.92196 2.02158 7.90328 1.85546 7.86712L1.87134 7.86996C2.30782 9.1737 3.49593 10.1065 4.91042 10.1609H4.91653C3.82655 11.0304 2.42793 11.5561 0.906352 11.5561C0.877036 11.5561 0.84772 11.5561 0.818811 11.5557H0.82329C0.783795 11.5569 0.737378 11.5577 0.690554 11.5577C0.455619 11.5577 0.224756 11.539 0 11.5025L0.0248371 11.5057C1.44381 12.4422 3.18567 13 5.05782 13C5.06107 13 5.06433 13 5.06759 13C11.1079 13 14.4023 8.01866 14.4023 3.68532V3.2372C15.0216 2.75658 15.5501 2.19795 15.9833 1.56863L15.9996 1.54344L16 1.54425Z" fill="black"/>
</svg>
