<svg width="673" height="62" viewBox="0 0 673 62" fill="none" xmlns="http://www.w3.org/2000/svg">
<path d="M17.4135 0H0L26.0797 56.695H43.5741L69.7348 0H52.3213L34.9079 37.8236L17.4135 0Z" fill="#202020"/>
<path d="M73.2997 13.1208L73.2188 56.695H90.6322V17.4134L81.966 13.1208H121.247V30.5343H99.3794C99.3794 36.8517 106.507 43.5741 113.229 43.5741H121.166V56.695H138.58L138.661 13.1208C138.661 5.83148 132.829 0 125.621 0H86.3396C79.1312 0 73.2187 5.83148 73.2997 13.1208Z" fill="#202020"/>
<path d="M200.941 0H148.539V56.695H165.953V43.5741L157.286 39.2815H179.073L196.487 56.695H213.9L196.487 39.2815H200.86C208.069 39.2815 213.981 33.369 213.981 26.1607V13.1208C213.981 5.83148 208.15 0 200.941 0ZM157.286 13.1208H196.568L196.487 26.1607H165.953V17.4134L157.286 13.1208Z" fill="#202020"/>
<path d="M274.809 0H222.406V56.695H274.728C281.936 56.695 287.848 50.8635 287.767 43.5741L287.848 13.1208C287.848 5.83148 282.017 0 274.809 0ZM231.153 13.1208H270.435L270.354 43.5741H239.82V17.4134L231.153 13.1208Z" fill="#202020"/>
<path d="M309.634 56.695H353.289V43.5741H314.007L314.088 13.1208H353.37L353.289 0H309.715C302.506 0 296.594 5.83148 296.675 13.1208L296.594 43.5741C296.594 50.8635 302.425 56.695 309.634 56.695ZM321.621 21.7871C321.54 28.9954 327.371 34.9079 334.579 34.9079H344.541L344.622 21.7871H321.621Z" fill="#202020"/>
<path d="M379.049 0H361.555V56.695H378.968V20.6532L409.502 56.695H426.916L426.997 0H409.583V36.0418L379.049 0Z" fill="#202020"/>
<path d="M436.711 39.2815V43.5741C436.711 50.8635 442.542 56.695 449.751 56.695H484.659C491.867 56.695 497.78 50.8635 497.699 43.5741L497.78 34.9079H502.072L502.153 21.7871H471.619L471.538 34.9079H480.285V43.5741H454.124V34.9079H467.245V21.7871H454.205V13.1208H467.245V17.4134H484.659L484.74 13.1208C484.659 5.83148 478.827 0 471.619 0H449.832C442.623 0 436.711 5.83148 436.792 13.1208L436.711 17.4134C436.792 22.03 438.979 25.9987 442.542 28.3475C439.06 30.6963 436.711 34.6649 436.711 39.2815Z" fill="#2D7084"/>
<path d="M522.808 56.695H562.09C569.298 56.695 575.211 50.8635 575.13 43.5741V34.9079H557.716V43.5741H527.182V17.4134L518.516 13.1208H557.797V21.7871H575.211V13.1208C575.211 5.83148 569.379 0 562.171 0H522.889C515.681 0 509.768 5.83148 509.849 13.1208L509.688 43.5741C509.768 50.8635 515.6 56.695 522.808 56.695Z" fill="#202020"/>
<path d="M596.511 56.695H635.793C643.001 56.695 648.914 50.8635 648.833 43.5741L648.914 13.1208C648.914 5.83148 643.082 0 635.874 0H596.592C589.384 0 583.472 5.83148 583.553 13.1208L583.391 43.5741C583.472 50.8635 589.303 56.695 596.511 56.695ZM592.219 13.1208H631.5L631.419 43.5741H600.885V17.4134L592.219 13.1208Z" fill="#202020"/>
<path d="M672.885 47.9473H655.391L655.472 61.0681H672.885V47.9473Z" fill="#202020"/>
</svg>
